<?xml version="1.0" encoding="UTF-8" standalone="no"?>
<!DOCTYPE svg PUBLIC "-//W3C//DTD SVG 1.1//EN" "http://www.w3.org/Graphics/SVG/1.1/DTD/svg11.dtd">
<svg width="100%" height="100%" viewBox="0 0 611 201" version="1.1" xmlns="http://www.w3.org/2000/svg" xmlns:xlink="http://www.w3.org/1999/xlink" xml:space="preserve" xmlns:serif="http://www.serif.com/" style="fill-rule:evenodd;clip-rule:evenodd;stroke-linejoin:round;stroke-miterlimit:2;">
    <g transform="matrix(1,0,0,1,-110.36,-184.4)">
        <path d="M161.36,212.55L166.84,212.55L172.12,232.79L172.2,232.79L178.51,212.55L183.43,212.55L189.62,232.79L189.7,232.79L195.21,212.55L200.29,212.55L192.12,240.64L187.36,240.64L180.85,219.25L180.77,219.25L174.26,240.64L169.66,240.64L161.36,212.55Z" style="fill:rgb(40,40,99);fill-rule:nonzero;"/>
    </g>
    <g transform="matrix(1,0,0,1,-110.36,-184.4)">
        <path d="M203.42,212.55L222.03,212.55L222.03,217.07L208.42,217.07L208.42,223.97L221.32,223.97L221.32,228.49L208.42,228.49L208.42,236.11L222.74,236.11L222.74,240.63L203.42,240.63L203.42,212.55Z" style="fill:rgb(40,40,99);fill-rule:nonzero;"/>
    </g>
    <g transform="matrix(1,0,0,1,-110.36,-184.4)">
        <path d="M244.5,212.55L248.82,212.55L260.92,240.64L255.21,240.64L252.59,234.21L240.41,234.21L237.87,240.64L232.28,240.64L244.5,212.55ZM250.85,229.93L246.53,218.5L242.13,229.93L250.85,229.93Z" style="fill:rgb(40,40,99);fill-rule:nonzero;"/>
    </g>
    <g transform="matrix(1,0,0,1,-110.36,-184.4)">
        <path d="M264.06,212.55L273.83,212.55C279.23,212.55 284.3,214.3 284.3,220.61C284.3,224.66 281.96,227.63 277.79,228.23L285.25,240.65L279.22,240.65L272.71,228.75L269.06,228.75L269.06,240.65L264.06,240.65L264.06,212.55ZM272.96,224.45C275.78,224.45 279.07,224.21 279.07,220.56C279.07,217.23 275.98,216.83 273.39,216.83L269.07,216.83L269.07,224.45L272.96,224.45Z" style="fill:rgb(40,40,99);fill-rule:nonzero;"/>
    </g>
    <g transform="matrix(1,0,0,1,-110.36,-184.4)">
        <path d="M289.07,212.55L307.68,212.55L307.68,217.07L294.07,217.07L294.07,223.97L306.96,223.97L306.96,228.49L294.07,228.49L294.07,236.11L308.39,236.11L308.39,240.63L289.07,240.63L289.07,212.55Z" style="fill:rgb(40,40,99);fill-rule:nonzero;"/>
    </g>
    <g transform="matrix(1,0,0,1,-110.36,-184.4)">
        <path d="M467.16,271.69L436.98,271.69L436.98,255.84L514.85,255.84L514.85,271.69L484.68,271.69L484.68,354.29L467.16,354.29L467.16,271.69Z" style="fill:rgb(40,40,99);fill-rule:nonzero;"/>
    </g>
    <g transform="matrix(1,0,0,1,-110.36,-184.4)">
        <path d="M410,310.76C424.6,308.67 432.8,298.24 432.8,284.06C432.8,261.95 415,255.83 396.09,255.83L361.88,255.83L361.88,270.85L394.56,270.85C403.6,270.85 414.44,272.24 414.44,283.92C414.44,296.71 402.9,297.55 393.03,297.55L361.88,297.55L361.88,354.28L379.4,354.28L379.4,312.57L392.19,312.57L414.99,354.28L436.12,354.28L410,310.76Z" style="fill:rgb(40,40,99);fill-rule:nonzero;"/>
    </g>
    <g transform="matrix(1,0,0,1,-110.36,-184.4)">
        <path d="M585.85,311.73L585.85,295.88L564.53,295.88L564.54,311.73L585.85,311.73Z" style="fill:rgb(40,40,99);fill-rule:nonzero;"/>
    </g>
    <g transform="matrix(1,0,0,1,-110.36,-184.4)">
        <path d="M590.85,338.49L540.66,338.49L540.66,271.68L588.33,271.68L588.33,271.69L588.35,271.69L588.35,255.83L523.14,255.83L523.14,354.28L590.85,354.28L590.85,338.49Z" style="fill:rgb(40,40,99);fill-rule:nonzero;"/>
    </g>
    <g transform="matrix(1,0,0,1,-110.36,-184.4)">
        <path d="M688.88,255.83L667.61,255.83L652.59,279.69L662.62,294.09L688.88,255.83Z" style="fill:rgb(40,40,99);fill-rule:nonzero;"/>
    </g>
    <g transform="matrix(1,0,0,1,-110.36,-184.4)">
        <path d="M621.37,255.83L599.34,255.83L632.15,302.83L597.11,354.28L618.25,354.28L644.11,312.7L644.12,312.72L650.79,301.99L621.37,255.83Z" style="fill:rgb(40,40,99);fill-rule:nonzero;"/>
    </g>
    <g transform="matrix(1,0,0,1,-110.36,-184.4)">
        <path d="M692.36,354.28L661.76,310.22L652.18,325.6L670.11,354.28L692.36,354.28Z" style="fill:rgb(40,40,99);fill-rule:nonzero;"/>
    </g>
    <g transform="matrix(1,0,0,1,-110.36,-184.4)">
        <path d="M298.37,253.34C329.1,252.78 350.79,273.36 350.79,304.93C350.79,335.66 329.1,356.24 298.37,356.8C268.06,356.8 246.36,336.22 246.36,305.49C246.36,273.92 268.05,253.34 298.37,253.34ZM298.51,340.94C318.95,340.94 332.44,325.37 332.44,304.37C332.44,284.76 318.95,269.19 298.51,269.19C278.21,269.19 264.72,284.76 264.72,304.37C264.72,325.37 278.2,340.94 298.51,340.94Z" style="fill:rgb(40,40,99);fill-rule:nonzero;"/>
    </g>
    <g transform="matrix(1,0,0,1,-110.36,-184.4)">
        <path d="M190.59,340.94C182,340.94 174.64,338.15 169,333.34L169,352.87C175.43,355.42 182.66,356.79 190.45,356.79C213.12,356.38 230.85,345.07 238.61,326.83L218.11,326.83C212.23,335.55 202.61,340.94 190.59,340.94Z" style="fill:rgb(40,40,99);fill-rule:nonzero;"/>
    </g>
    <g transform="matrix(1,0,0,1,-110.36,-184.4)">
        <path d="M156.8,304.37C156.8,284.76 170.29,269.19 190.59,269.19C203.48,269.19 213.6,275.39 219.32,284.88L239.52,284.88C232.32,264.97 214.06,252.91 190.45,253.34C160.14,253.34 138.44,273.92 138.44,305.48C138.44,313.72 140.01,321.22 142.88,327.79L163.87,327.79C159.34,321.56 156.8,313.47 156.8,304.37Z" style="fill:rgb(40,40,99);fill-rule:nonzero;"/>
    </g>
</svg>
