<?xml version="1.0" encoding="utf-8"?>
<!-- Generator: Adobe Illustrator 19.2.1, SVG Export Plug-In . SVG Version: 6.00 Build 0)  -->
<svg version="1.1" id="Layer_4_copy" xmlns="http://www.w3.org/2000/svg" xmlns:xlink="http://www.w3.org/1999/xlink" x="0px"
	 y="0px" viewBox="0 0 1388 475.1" style="enable-background:new 0 0 1388 475.1;" xml:space="preserve">
<style type="text/css">
	.st0{fill:#3B8FCE;}
	.st1{fill:#262056;}
	.st2{fill:#A1C429;}
	.st3{fill:#FFFFFF;}
	.st4{fill:url(#SVGID_1_);}
	.st5{opacity:0.6;fill:url(#SVGID_2_);}
	.st6{filter:url(#Adobe_OpacityMaskFilter);}
	.st7{fill:url(#SVGID_4_);}
	.st8{mask:url(#SVGID_3_);fill:#FFFFFF;}
	.st9{fill:#3F3F3E;}
</style>
<path class="st0" d="M122.1,231.7c0-15.7,3.6-30.5,9.9-43.8l-81.1-46.8c-22.9,43.5-28.5,93.3-15.7,141
	c13.5,50.3,45.7,92.3,90.8,118.3c29,16.7,56.9,24.9,89.6,26l0-93.7C163.3,328.7,122.1,285.1,122.1,231.7z"/>
<path class="st1" d="M223.5,130.3c34.7,0,65.3,17.5,83.6,44.1l81.1-46.8c-35.6-56.2-98-90.8-164.9-90.8c-34,0-67.6,9-97.3,26.1
	c-29,16.7-50,36.8-67.3,64.6l81.1,46.8C158.2,147.8,188.8,130.3,223.5,130.3z"/>
<path class="st2" d="M396.1,141.1L315,188c6.3,13.2,9.9,28.1,9.9,43.7c0,53.3-41.2,97-93.5,101l0,93.7c103.8-4.1,187-89.9,187-194.7
	C418.4,198.2,411.5,170,396.1,141.1z"/>
<g>
	<path class="st3" d="M223.5,231.7l-65.8-38c-21,36.4-8.5,82.9,27.8,103.9c12.1,7,24,10.2,38,10.2V231.7z"/>
</g>
<g>
	<path class="st3" d="M223.5,231.7l65.8-38c-21-36.4-67.5-48.8-103.9-27.8c-12.1,7-20.8,15.7-27.8,27.8L223.5,231.7z"/>
</g>
<g>
	<path class="st3" d="M223.5,231.7v76c42,0,76-34,76-76c0-14-3.2-25.9-10.2-38L223.5,231.7z"/>
</g>
<g>
	<radialGradient id="SVGID_1_" cx="223.5157" cy="231.6926" r="76.1085" gradientUnits="userSpaceOnUse">
		<stop  offset="0" style="stop-color:#969695"/>
		<stop  offset="1" style="stop-color:#3F3F3E"/>
	</radialGradient>
	<path class="st4" d="M147.4,231.7c0-42,34.1-76.1,76.1-76.1c42,0,76.1,34.1,76.1,76.1c0,42-34.1,76.1-76.1,76.1
		C181.5,307.8,147.4,273.7,147.4,231.7z"/>
	<linearGradient id="SVGID_2_" gradientUnits="userSpaceOnUse" x1="223.5157" y1="155.5859" x2="223.5157" y2="307.7993">
		<stop  offset="0" style="stop-color:#FFFFFF"/>
		<stop  offset="1" style="stop-color:#3F3F3E"/>
	</linearGradient>
	<path class="st5" d="M147.4,231.7c0-42,34.1-76.1,76.1-76.1c42,0,76.1,34.1,76.1,76.1c0,42-34.1,76.1-76.1,76.1
		C181.5,307.8,147.4,273.7,147.4,231.7z"/>
	<defs>
		<filter id="Adobe_OpacityMaskFilter" filterUnits="userSpaceOnUse" x="177.2" y="172.1" width="92.7" height="59.5">
			<feColorMatrix  type="matrix" values="1 0 0 0 0  0 1 0 0 0  0 0 1 0 0  0 0 0 1 0"/>
		</filter>
	</defs>
	<mask maskUnits="userSpaceOnUse" x="177.2" y="172.1" width="92.7" height="59.5" id="SVGID_3_">
		<g class="st6">
			<linearGradient id="SVGID_4_" gradientUnits="userSpaceOnUse" x1="220.0409" y1="123.6788" x2="220.0409" y2="238.3832">
				<stop  offset="0" style="stop-color:#FFFFFF"/>
				<stop  offset="1" style="stop-color:#000000"/>
			</linearGradient>
			<rect x="158.4" y="123.7" class="st7" width="123.3" height="114.7"/>
		</g>
	</mask>
	<path class="st8" d="M177.2,201.9c0-16.5,20.7-29.8,46.3-29.8s46.3,13.3,46.3,29.8c0,16.4-20.7,29.8-46.3,29.8
		S177.2,218.4,177.2,201.9z"/>
</g>
<g>
	<path class="st9" d="M549.7,146c42.6,0,62.7,24.3,62.7,24.3l-17.9,27.8c0,0-17-17.6-42.6-17.6c-30.1,0-49.6,22.7-49.6,50.6
		c0,27.5,19.8,51.2,50.9,51.2c27.5,0,48-20.8,48-20.8l15.7,28.8c0,0-23.4,26.5-67.2,26.5c-54.1,0-88.6-38.1-88.6-85.4
		C461.1,185,495.6,146,549.7,146z"/>
	<path class="st9" d="M697.7,146c49.9,0,89.9,35.5,89.9,85.4c0,50.2-40,85.4-89.6,85.4c-49.9,0-89.9-35.2-89.9-85.4
		C608.1,181.5,648.1,146,697.7,146z M698,282.3c26.3,0,48.3-20.5,48.3-50.9c0-30.1-22.1-50.9-48.3-50.9c-26.6,0-48.6,20.8-48.6,50.9
		C649.4,261.8,671.5,282.3,698,282.3z"/>
	<path class="st9" d="M796.6,149.8h39V178c0,6.1-0.6,11.5-0.6,11.5h0.6c7.4-23.4,26.9-41.9,51.9-41.9c3.8,0,7.3,0.6,7.3,0.6v40
		c0,0-4.2-0.6-9.6-0.6c-17.3,0-36.8,9.9-44.5,34.2c-2.6,8-3.5,16.9-3.5,26.6V313h-40.6V149.8z"/>
	<path class="st9" d="M904.2,105.4h40.7v47H982v32.3h-37.1v63.4c0,26.9,21.1,30.7,32.3,30.7c4.5,0,7.4-0.6,7.4-0.6v35.5
		c0,0-4.8,1-12.5,1c-22.7,0-67.9-6.7-67.9-61.4V105.4z"/>
	<path class="st9" d="M1065.5,146c47,0,72.3,34.2,72.3,77.4c0,4.8-1,15.7-1,15.7h-112.6c2.6,28.5,24.6,43.2,49,43.2
		c26.2,0,47.1-17.9,47.1-17.9l15.7,29.1c0,0-25,23.4-65.6,23.4c-54.1,0-87.7-39-87.7-85.4C982.6,181.2,1016.9,146,1065.5,146z
		 M1096.9,211.3c-0.6-22.1-14.4-33.9-32.3-33.9c-20.8,0-35.2,12.8-39,33.9H1096.9z"/>
	<path class="st9" d="M1236,230.5l52.5-80.6h-46.1l-25.3,44.5c-2.6,4.2-5.4,10.2-5.4,10.2h-0.6c0,0-2.9-6.1-5.4-10.2l-25.3-44.5
		h-46.1l52.5,80.6L1133,313h45.1l28.5-47.4c2.3-3.5,4.5-8.6,4.5-8.6h0.6c0,0,2.3,5.1,4.5,8.6l28.5,47.4h45.1L1236,230.5z"/>
	<g>
		<path class="st9" d="M1313.8,149.8c9.5,0,17.2,7.7,17.2,17.4c0,9.8-7.6,17.5-17.2,17.5c-9.4,0-16.9-7.7-16.9-17.5
			C1296.8,157.6,1304.4,149.8,1313.8,149.8z M1313.8,182.1c8.2,0,14.4-6.5,14.4-14.9c0-8.3-6.2-14.8-14.4-14.8
			c-8,0-14.1,6.5-14.1,14.8C1299.6,175.6,1305.8,182.1,1313.8,182.1z M1308.1,157.9h6.7c3.3,0,5.6,2.2,5.6,5.6
			c0,2.8-1.8,4.5-3.5,4.9v0.1c0,0,0.2,0.2,0.6,1.1l3.6,7.1h-3l-3.7-7.6h-3.6v7.6h-2.7V157.9z M1314.3,166.9c2,0,3.3-1.3,3.3-3.5
			c0-2.1-1.3-3.3-3.3-3.3h-3.5v6.8H1314.3z"/>
	</g>
</g>
</svg>
